<svg width="45" height="48" viewBox="0 0 45 48" fill="none" xmlns="http://www.w3.org/2000/svg">
<path d="M44.2266 16.3588L44.2016 16.2268L44.1478 16.1032C44.0749 15.9333 43.9649 15.642 43.8253 15.2937C43.4431 14.35 42.8339 12.9626 41.705 11.7004C41.7066 11.6359 41.7089 11.5729 41.7089 11.5054C41.7096 8.33222 40.42 5.448 38.3401 3.36956C36.2615 1.28953 33.3768 -0.000749673 30.2035 3.26786e-07C27.0304 -0.000749673 24.1463 1.28953 22.0677 3.36956C19.9884 5.44809 18.6973 8.33222 18.698 11.5054C18.6973 12.5552 18.8217 13.4655 18.9932 14.3083C19.1653 15.1519 19.3777 15.9263 19.5704 16.7623C19.6402 17.0679 19.7274 17.3327 19.8131 17.5619C17.5389 17.3404 15.4748 17.2312 13.6177 17.2312C11.6083 17.2312 9.84007 17.3571 8.29863 17.609C7.14251 17.7979 6.11313 18.0573 5.20432 18.3948C3.8457 18.9016 2.73898 19.5873 1.94848 20.5135C1.55548 20.9755 1.24826 21.4966 1.04576 22.0565C0.842508 22.6163 0.743883 23.211 0.744633 23.8148C0.745383 24.8526 1.02382 25.91 1.51535 26.9879C2.00773 28.0666 2.71685 29.1734 3.63101 30.3257C4.27048 31.1305 4.73557 31.7253 5.13082 32.3101C5.52748 32.8965 5.86657 33.4822 6.27016 34.3219C7.53241 36.9496 9.30223 39.2406 11.5757 40.8859C12.9632 41.8926 14.5425 42.6473 16.2789 43.0812L13.9319 48H21.0353V45.8426H17.3524L18.4941 43.45C18.9152 43.4857 19.3422 43.5062 19.7769 43.5054C22.0928 43.5062 24.2912 42.9919 26.2658 42.077L29.2425 46.7544L35.057 44.7032L34.3394 42.6686L30.1422 44.1494L28.1585 41.0339C29.0809 40.4377 29.9381 39.7489 30.7089 38.9774C33.5059 36.1835 35.2384 32.3102 35.2384 28.0454H35.2377C35.2429 27.937 35.2468 27.8286 35.2468 27.7178C35.2445 26.9463 35.1467 26.0716 35.054 25.1886C34.9615 24.3102 34.8742 23.4302 34.8751 22.7672C34.8736 22.4198 34.9031 22.1406 34.9365 21.9881C36.575 21.247 38.0012 20.1364 39.1192 18.7634C40.2215 18.7285 41.1818 18.6466 41.9579 18.5039C42.1878 18.4607 42.4032 18.413 42.608 18.3546C42.9168 18.2635 43.1974 18.1657 43.5047 17.9654C43.6579 17.8614 43.8232 17.7279 43.9773 17.5118C44.053 17.404 44.1244 17.2736 44.1745 17.1249C44.2261 16.9762 44.2556 16.8093 44.2549 16.6448C44.2548 16.5446 44.2442 16.4483 44.2266 16.3588ZM40.4444 16.1669C39.8769 16.2185 39.2094 16.2511 38.4751 16.2609L37.8454 16.27L37.4752 16.7797C36.5171 18.099 35.2147 19.1481 33.7021 19.789C33.3455 19.9377 33.0626 20.201 32.8851 20.4604C32.7478 20.6576 32.6575 20.8556 32.5893 21.0475C32.4884 21.3365 32.436 21.6164 32.4027 21.9001C32.3708 22.1839 32.3586 22.4721 32.3586 22.7672C32.3601 23.6282 32.458 24.5643 32.5514 25.4511C32.6447 26.3325 32.7312 27.1723 32.7297 27.7178C32.7297 27.8125 32.7274 27.8975 32.7229 27.9688L32.7214 28.0075V28.0454C32.7206 31.6229 31.2739 34.8515 28.9292 37.1978C26.5829 39.5418 23.3551 40.9884 19.7769 40.9884C17.143 40.9854 14.928 40.1994 13.0505 38.8462C11.1784 37.493 9.6521 35.5493 8.53845 33.2319C8.4747 33.0984 8.41095 32.9771 8.34879 32.8519C9.52685 33.2479 10.6018 33.5186 11.5554 33.6962C13.184 34.0004 14.4698 34.0444 15.3256 34.0444C15.6669 34.0444 15.9408 34.0384 16.1221 34.0384C16.6182 34.0384 17.0209 33.6355 17.0209 33.1387C17.0209 32.6418 16.6181 32.2398 16.1221 32.2398C15.9028 32.2398 15.6441 32.2466 15.3256 32.2466C14.5337 32.2466 13.3798 32.2072 11.8846 31.9288C10.4827 31.6671 8.77901 31.1891 6.81495 30.3327C6.45691 29.8426 6.06551 29.3458 5.60201 28.7609C4.78348 27.73 4.18573 26.7802 3.80491 25.9444C3.4226 25.1068 3.26032 24.3907 3.26182 23.815C3.26641 23.2149 3.4151 22.7583 3.73441 22.3107C3.97798 21.9777 4.33601 21.647 4.85107 21.3352C5.61879 20.8687 6.7377 20.4597 8.2032 20.1813C9.66888 19.9006 11.4765 19.7474 13.6179 19.7474C15.5395 19.7474 17.728 19.8703 20.185 20.1283L20.3755 20.148L20.5636 20.1108C20.7979 20.0638 21.0096 20.0123 21.2114 19.9462C21.3647 19.8961 21.5141 19.8376 21.6665 19.7572C21.7811 19.6982 21.8979 19.6245 22.0147 19.529C22.1892 19.3886 22.3637 19.1861 22.476 18.9448C22.5913 18.7044 22.6352 18.4449 22.6329 18.2332C22.6299 17.9214 22.5624 17.703 22.5039 17.5224C22.4114 17.2554 22.3166 17.0552 22.2338 16.8466C22.1504 16.6395 22.0769 16.4317 22.0222 16.1964C21.8151 15.2998 21.608 14.5413 21.4601 13.8077C21.3114 13.0734 21.2159 12.3626 21.2151 11.5055C21.2159 9.01884 22.2196 6.78094 23.8474 5.14997C25.4784 3.52134 27.7177 2.51775 30.2036 2.517C32.6895 2.51775 34.9295 3.52134 36.5598 5.14997C38.1885 6.78094 39.1921 9.01875 39.1928 11.5055C39.1928 11.6898 39.183 11.8854 39.1693 12.0964L39.1337 12.6722L39.5464 13.0758C40.2003 13.7138 40.6789 14.4784 41.0362 15.202C41.1804 15.4964 41.301 15.7762 41.4109 16.0433C41.1416 16.0902 40.8169 16.1335 40.4444 16.1669Z" fill="#ECEDEE"/>
<path d="M32.421 10.3668C31.6267 10.3668 30.9834 11.0108 30.9834 11.8057C30.9834 12.5992 31.6267 13.244 32.421 13.244C33.2152 13.244 33.8593 12.5992 33.8593 11.8057C33.8593 11.0108 33.2152 10.3668 32.421 10.3668Z" fill="#ECEDEE"/>
</svg>
